<svg class="LemonSticker w-8 h-8" width="100%" fill="currentColor" xmlns="http://www.w3.org/2000/svg" viewBox="0 0 36 36"><path opacity="0.35" d="M13.608 34.812C10.692 34.812 7.956 33.696 5.904 31.68C3.852 29.664 2.7 26.928 2.7 24.012C2.7 21.024 3.888 18.216 6.048 16.092L8.676 13.5C10.836 11.376 13.932 10.188 17.208 10.188C17.496 10.188 17.748 10.188 18 10.224C18.072 9.036 18.324 7.884 18.684 6.804C19.044 5.796 19.584 4.536 20.736 3.24C21.168 2.736 21.816 2.448 22.5 2.448C22.572 2.448 22.608 2.448 22.68 2.448C23.292 2.484 23.868 2.772 24.3 3.24C24.408 3.132 24.516 3.024 24.66 2.952C25.092 2.628 25.596 2.448 26.136 2.448C26.352 2.448 26.532 2.484 26.748 2.52C27.468 2.7 28.044 3.24 28.332 3.924C28.404 4.104 28.476 4.32 28.548 4.5C29.196 4.248 29.952 3.996 30.816 3.888C30.924 3.852 31.068 3.852 31.176 3.852C31.788 3.852 32.364 4.104 32.832 4.536C33.372 5.04 33.624 5.796 33.516 6.516C33.408 7.416 33.156 8.172 32.904 8.856C33.084 8.928 33.264 8.964 33.444 9.036C34.128 9.288 34.668 9.864 34.884 10.584C35.1 11.304 34.956 12.06 34.488 12.672C34.272 12.96 34.02 13.248 33.804 13.464C33.912 13.536 34.02 13.644 34.128 13.716C34.704 14.184 35.028 14.904 34.992 15.66C34.956 16.416 34.56 17.1 33.912 17.496C32.436 18.432 31.032 18.828 29.988 19.044C29.196 19.188 28.404 19.296 27.612 19.332C27.72 19.836 27.756 20.304 27.756 20.7C27.72 23.868 26.496 26.892 24.336 28.98C24.264 29.052 21.816 31.464 21.744 31.536C19.44 33.66 16.596 34.812 13.608 34.812Z" fill="black"></path><path d="M12.888 34.092C9.972 34.092 7.236 32.976 5.184 30.96C3.132 28.944 1.98 26.208 1.98 23.292C1.98 20.304 3.168 17.496 5.328 15.372L7.956 12.78C10.116 10.656 13.212 9.468 16.488 9.468C16.776 9.468 17.028 9.468 17.28 9.504C17.352 8.316 17.604 7.164 17.964 6.084C18.324 5.076 18.864 3.816 20.016 2.52C20.448 2.016 21.096 1.728 21.78 1.728C21.852 1.728 21.888 1.728 21.96 1.728C22.572 1.764 23.148 2.052 23.58 2.52C23.688 2.412 23.796 2.304 23.94 2.232C24.372 1.908 24.876 1.728 25.416 1.728C25.632 1.728 25.812 1.764 26.028 1.8C26.748 1.98 27.324 2.52 27.612 3.204C27.684 3.384 27.756 3.6 27.828 3.78C28.476 3.528 29.232 3.276 30.096 3.168C30.204 3.132 30.348 3.132 30.456 3.132C31.068 3.132 31.644 3.384 32.112 3.816C32.652 4.32 32.904 5.076 32.796 5.796C32.688 6.696 32.436 7.452 32.184 8.136C32.364 8.208 32.544 8.244 32.724 8.316C33.408 8.568 33.948 9.144 34.164 9.864C34.38 10.584 34.236 11.34 33.768 11.952C33.552 12.24 33.3 12.528 33.084 12.744C33.192 12.816 33.3 12.924 33.408 12.996C33.984 13.464 34.308 14.184 34.272 14.94C34.236 15.696 33.84 16.38 33.192 16.776C31.716 17.712 30.312 18.108 29.268 18.324C28.476 18.468 27.684 18.576 26.892 18.612C27 19.116 27.036 19.584 27.036 19.98C27 23.148 25.776 26.172 23.616 28.26C23.544 28.332 21.096 30.744 21.024 30.816C18.72 32.94 15.876 34.092 12.888 34.092Z" fill="#F2F2F2"></path><path d="M21.348 14.688C21.528 13.356 21.996 12.312 22.536 11.34C23.076 10.368 23.76 9.504 24.516 8.748C25.272 7.992 26.1 7.308 27.072 6.732C28.044 6.156 29.088 5.688 30.42 5.472C30.24 6.804 29.772 7.848 29.232 8.82C28.692 9.792 28.008 10.656 27.252 11.412C26.496 12.168 25.668 12.852 24.696 13.428C23.688 14.004 22.644 14.472 21.348 14.688Z" fill="#96C362"></path><path d="M31.644 11.016C30.888 12.024 30.024 12.672 29.124 13.212C28.224 13.752 27.288 14.148 26.316 14.436C25.344 14.724 24.336 14.868 23.292 14.904C22.248 14.904 21.168 14.832 19.98 14.4C20.736 13.392 21.6 12.744 22.5 12.204C23.4 11.664 24.336 11.268 25.308 10.98C26.28 10.692 27.288 10.548 28.332 10.512C29.376 10.476 30.456 10.584 31.644 11.016Z" fill="#739F4D"></path><path d="M21.672 16.272C21.204 15.084 21.132 14.004 21.132 12.924C21.132 11.88 21.312 10.836 21.564 9.864C21.816 8.892 22.212 7.92 22.716 6.984C23.256 6.084 23.904 5.184 24.876 4.392C25.344 5.58 25.452 6.66 25.452 7.74C25.452 8.784 25.272 9.828 25.02 10.8C24.768 11.772 24.372 12.744 23.832 13.68C23.292 14.58 22.644 15.48 21.672 16.272Z" fill="#739F4D"></path><path d="M31.536 15.264C30.492 15.948 29.448 16.272 28.404 16.488C27.36 16.704 26.352 16.74 25.344 16.704C24.336 16.632 23.328 16.452 22.32 16.128C21.312 15.804 20.34 15.336 19.368 14.544C20.412 13.86 21.456 13.536 22.5 13.32C23.544 13.104 24.552 13.068 25.56 13.104C26.568 13.176 27.576 13.356 28.584 13.68C29.556 14.04 30.564 14.472 31.536 15.264Z" fill="#96C362"></path><path d="M21.384 4.284C22.068 5.292 22.392 6.264 22.608 7.236C22.824 8.208 22.86 9.18 22.824 10.116C22.752 11.088 22.572 12.024 22.248 12.96C21.924 13.896 21.456 14.832 20.664 15.732C19.98 14.724 19.656 13.752 19.44 12.78C19.224 11.808 19.188 10.836 19.224 9.9C19.296 8.928 19.476 7.992 19.8 7.056C20.16 6.12 20.592 5.184 21.384 4.284Z" fill="#96C362"></path><path d="M18.972 28.8C19.044 28.728 21.384 26.424 21.456 26.352C23.112 24.732 24.012 22.392 24.048 20.052C24.048 18.828 23.148 16.272 22.104 15.192C21.636 14.724 20.988 14.112 20.988 14.112C20.988 14.112 19.332 12.348 16.344 12.348C13.896 12.348 11.448 13.212 9.792 14.868C9.684 14.976 7.416 17.208 7.308 17.316C3.996 20.556 3.96 25.776 7.164 28.98C10.404 32.112 15.696 32.04 18.972 28.8Z" fill="#D47F56"></path><path opacity="0.35" d="M20.592 26.28C20.664 26.352 20.844 26.568 20.988 27.072C21.096 27.36 21.384 27.504 21.672 27.396C21.96 27.288 22.104 27 21.996 26.712C21.96 26.568 21.888 26.46 21.852 26.352C21.924 26.352 21.996 26.388 22.104 26.388C22.392 26.424 22.68 26.244 22.716 25.92C22.752 25.632 22.572 25.344 22.248 25.308C21.924 25.272 21.708 25.236 21.492 25.2C21.42 24.372 21.24 23.04 20.844 22.068C22.104 22.212 23.184 22.5 23.688 22.824C23.94 23.004 24.264 22.932 24.444 22.68C24.516 22.572 24.552 22.428 24.516 22.32C24.696 22.212 24.804 22.032 24.768 21.816C24.66 20.664 24.372 18.648 23.58 17.82C22.752 16.992 20.628 16.704 19.512 16.596C19.404 15.444 19.152 13.212 18.288 12.348C17.856 11.916 17.064 11.592 15.912 11.34C15.624 11.268 15.336 11.484 15.264 11.772C15.192 12.06 15.408 12.348 15.696 12.42C16.956 12.672 17.388 12.996 17.532 13.104C17.928 13.5 18.252 14.76 18.432 16.308C17.424 15.876 16.056 15.696 15.228 15.624C15.156 14.724 14.976 13.14 14.472 12.096C14.328 11.808 14.04 11.7 13.752 11.844C13.464 11.988 13.356 12.276 13.5 12.564C13.752 13.104 13.968 14.04 14.076 15.084C12.816 14.544 10.98 14.4 10.332 14.364C10.296 14.364 10.296 14.364 10.26 14.364C10.08 14.256 9.864 14.148 9.612 14.04C9.324 13.932 9.036 14.076 8.928 14.364C8.82 14.652 8.964 14.94 9.252 15.048C9.648 15.192 9.828 15.336 9.936 15.444C10.296 15.804 10.62 16.956 10.8 18.396C9.54 17.856 7.704 17.712 7.056 17.676C7.02 17.676 7.02 17.676 6.984 17.676C6.84 17.604 6.732 17.532 6.552 17.46C6.264 17.352 5.976 17.46 5.832 17.748C5.724 18.036 5.832 18.324 6.12 18.468C6.408 18.612 6.552 18.72 6.624 18.792C6.984 19.152 7.308 20.304 7.488 21.708C6.696 21.384 5.652 21.204 4.824 21.096C4.536 21.06 4.248 21.276 4.212 21.564C4.176 21.852 4.392 22.14 4.68 22.176C6.408 22.392 7.344 22.752 7.632 23.04C8.028 23.436 8.352 24.696 8.532 26.244C7.308 25.704 5.508 25.56 4.86 25.524C4.572 25.524 4.32 25.74 4.284 26.028C4.284 26.172 4.32 26.352 4.428 26.424C4.536 26.532 4.644 26.568 4.788 26.568C6.588 26.676 8.172 27.072 8.64 27.504C9.072 27.936 9.432 29.412 9.576 31.176C9.612 31.464 9.864 31.68 10.152 31.68C10.44 31.644 10.656 31.392 10.656 31.104C10.584 30.348 10.44 28.728 9.936 27.612C11.376 27.756 12.564 28.116 12.96 28.476C13.248 28.764 13.608 29.7 13.824 31.428C13.86 31.716 14.112 31.932 14.436 31.896C14.724 31.86 14.94 31.608 14.904 31.284C14.796 30.456 14.652 29.448 14.328 28.656C15.768 28.836 16.956 29.16 17.316 29.52C17.388 29.592 17.532 29.808 17.676 30.168C17.784 30.456 18.108 30.6 18.36 30.492C18.612 30.384 18.792 30.06 18.684 29.808C18.576 29.484 18.432 29.232 18.288 29.016C18.252 28.368 18.108 26.604 17.604 25.344C19.044 25.56 20.196 25.92 20.592 26.28ZM9.612 26.532C9.54 25.74 9.396 24.408 9.036 23.4C10.44 23.58 11.592 23.904 11.952 24.264C12.312 24.624 12.636 25.776 12.816 27.18C11.772 26.784 10.44 26.604 9.612 26.532ZM18.54 17.64C18.9 18 19.224 19.152 19.404 20.592C18.396 20.16 17.064 19.98 16.236 19.944C16.164 19.152 16.02 17.82 15.66 16.812C17.064 16.92 18.18 17.244 18.54 17.64ZM12.924 23.22C12.852 22.428 12.708 21.096 12.348 20.088C13.752 20.268 14.868 20.592 15.264 20.952C15.624 21.312 15.948 22.464 16.128 23.868C15.084 23.472 13.752 23.292 12.924 23.22ZM14.256 16.416C14.652 16.812 14.976 18.072 15.156 19.62C14.148 19.188 12.78 19.008 11.952 18.936C11.88 18.072 11.7 16.56 11.268 15.516C12.672 15.696 13.86 16.02 14.256 16.416ZM10.944 19.728C11.34 20.124 11.664 21.384 11.844 22.932C10.836 22.5 9.468 22.32 8.64 22.248C8.568 21.384 8.388 19.872 7.956 18.828C9.36 19.008 10.548 19.332 10.944 19.728ZM13.212 24.336C14.652 24.48 15.84 24.84 16.236 25.2C16.596 25.596 16.956 26.784 17.1 28.26C16.092 27.828 14.724 27.684 13.896 27.612C13.824 26.748 13.644 25.344 13.212 24.336ZM16.524 21.024C17.964 21.168 19.152 21.528 19.548 21.888C19.908 22.284 20.268 23.472 20.412 24.948C19.404 24.516 18.036 24.372 17.208 24.3C17.136 23.436 16.956 22.032 16.524 21.024ZM22.86 18.576C23.22 18.936 23.544 20.124 23.724 21.636C22.716 21.204 21.312 21.06 20.52 20.988C20.448 20.124 20.268 18.72 19.836 17.712C21.312 17.856 22.5 18.216 22.86 18.576Z" fill="#40396E"></path><path fill-rule="evenodd" clip-rule="evenodd" d="M25.4807 3.54558C25.6474 3.5892 25.7833 3.70975 25.8464 3.87007C26.2221 4.82365 26.3792 5.73046 26.4344 6.5808C26.6108 6.46158 26.7903 6.34608 26.969 6.2361L26.9742 6.23295C27.9096 5.67171 28.9864 5.16772 30.3054 4.97374C30.4744 4.9489 30.6451 5.00542 30.7658 5.12616C30.8866 5.2469 30.9431 5.41763 30.9183 5.58657C30.7258 6.89535 30.2639 7.96684 29.7392 8.90384C29.7355 8.91031 29.7318 8.9167 29.7279 8.92301C29.6108 9.11326 29.4883 9.3031 29.3624 9.49034C30.1764 9.53618 31.0362 9.66685 31.9416 10.0064C32.1008 10.0661 32.2226 10.1973 32.2703 10.3606C32.318 10.5238 32.286 10.7 32.184 10.836C31.4411 11.8265 30.6025 12.4891 29.7483 13.0248C30.5244 13.3462 31.3186 13.7823 32.0931 14.4134C32.2266 14.5221 32.3002 14.688 32.2913 14.86C32.2823 15.0319 32.192 15.1893 32.0479 15.2837C30.9273 16.0179 29.812 16.3607 28.7313 16.5844C27.6763 16.8103 26.5842 16.8859 25.5279 16.8111C25.1022 16.7905 24.6694 16.738 24.2417 16.6658C24.4196 17.0697 24.575 17.4847 24.7023 17.8864C24.9391 18.6341 25.092 19.3784 25.092 19.944L25.0919 19.9518C25.0542 22.5578 24.0733 25.1489 22.1934 26.9542C22.1259 27.0213 21.5143 27.6243 20.9008 28.2292L20.8811 28.2485C20.2404 28.8802 19.604 29.5076 19.5698 29.5418L19.5678 29.5438C15.9105 33.1631 9.99253 33.2525 6.38944 29.6891C2.77988 26.1554 2.87304 20.3012 6.53217 16.6802C6.54966 16.6629 6.56831 16.6468 6.588 16.632C6.58029 16.6378 6.58275 16.6355 6.59982 16.6196C6.61566 16.6048 6.64408 16.5784 6.68861 16.5358C6.76526 16.4625 6.86853 16.3621 6.99036 16.2428C7.23371 16.0045 7.54654 15.695 7.85904 15.3848C8.48327 14.765 9.10316 14.1452 9.15802 14.0903L9.16212 14.0862C11.0401 12.2466 13.7381 11.268 16.452 11.268C17.4746 11.268 18.3583 11.4471 19.1014 11.7094C19.0126 11.0237 18.9937 10.3427 19.0455 9.64411C19.1206 8.63009 19.309 7.64768 19.6497 6.66336C19.6517 6.65759 19.6538 6.65185 19.656 6.64615C20.0252 5.68623 20.4848 4.68147 21.3386 3.71126C21.449 3.58586 21.6111 3.51859 21.7779 3.52906C21.9446 3.53953 22.097 3.62657 22.1908 3.76479C22.6368 4.42195 22.939 5.06438 23.1581 5.69472C23.6363 4.98991 24.2191 4.288 25.0029 3.64937C25.1365 3.54053 25.314 3.50197 25.4807 3.54558ZM22.4287 7.08277C22.2709 6.38655 22.0563 5.70544 21.6864 5.01413C21.2345 5.66061 20.9351 6.32988 20.6673 7.02521C20.3619 7.91005 20.1912 8.7969 20.1225 9.72389C20.0546 10.6411 20.1221 11.5242 20.3271 12.4469C20.3357 12.4853 20.34 12.5246 20.34 12.564V12.6C20.34 12.7888 20.2414 12.9639 20.0799 13.0618C19.9185 13.1597 19.7176 13.1661 19.5502 13.0788C18.7912 12.6827 17.7603 12.348 16.452 12.348C13.9829 12.348 11.5698 13.2407 9.91983 14.8558C9.85399 14.9217 9.23925 15.5364 8.61996 16.1512C8.30696 16.462 7.99204 16.7735 7.74601 17.0144C7.62316 17.1347 7.51633 17.2386 7.43506 17.3163C7.38492 17.3643 7.32454 17.4219 7.27617 17.4634C4.03909 20.6831 3.99321 25.8327 7.14571 28.9181L7.14779 28.9201C10.3125 32.0512 15.553 31.9965 18.8073 28.777C18.8549 28.7296 19.4751 28.1182 20.0985 27.5035L20.1229 27.4795C20.7636 26.8478 21.4 26.2204 21.4342 26.1862C21.4368 26.1835 21.4395 26.1809 21.4422 26.1783C23.087 24.6006 23.9768 22.2991 24.012 19.9402C24.0113 19.5337 23.8942 18.9118 23.6727 18.2126C23.4532 17.5195 23.1443 16.7921 22.7896 16.1841C22.6807 15.9974 22.6936 15.7638 22.8223 15.5903C22.951 15.4167 23.1709 15.3366 23.3811 15.3867C24.1206 15.5628 24.8765 15.6988 25.5857 15.7326C25.5899 15.7328 25.5942 15.7331 25.5985 15.7334C26.5556 15.8017 27.5485 15.7333 28.5069 15.528L28.5106 15.5272C29.2789 15.3682 30.027 15.1528 30.768 14.7781C30.0613 14.3114 29.3403 13.9973 28.6292 13.7603C28.5886 13.7467 28.5377 13.7321 28.4716 13.7132L28.4662 13.7117C28.4072 13.6948 28.3345 13.6741 28.2692 13.6523C28.0672 13.5849 27.9236 13.4051 27.9026 13.1932C27.8816 12.9813 27.9872 12.7768 28.1721 12.6711C28.305 12.5952 28.4458 12.5201 28.5784 12.4494L28.5819 12.4475C28.7164 12.3758 28.8426 12.3084 28.9592 12.242C29.6213 11.8443 30.2468 11.3955 30.8178 10.7866C30.024 10.5894 29.2542 10.548 28.476 10.548H28.332C28.1275 10.548 27.9405 10.4324 27.849 10.2495C27.7575 10.0666 27.7773 9.84763 27.9 9.684C28.2136 9.26584 28.5258 8.81497 28.8023 8.36646C29.1697 7.70896 29.4898 7.00396 29.6948 6.20151C28.8963 6.41633 28.1926 6.76157 27.5325 7.15747C27.0807 7.4356 26.6344 7.74522 26.2619 8.04994C26.1005 8.18206 25.8773 8.20933 25.6888 8.11998C25.5002 8.03063 25.38 7.84065 25.38 7.632V7.416C25.38 6.64399 25.3187 5.84981 25.0931 5.02298C24.4981 5.62155 24.0471 6.27108 23.647 6.93783C23.6426 6.94517 23.6381 6.95241 23.6333 6.95954C23.5839 7.03358 23.5279 7.14372 23.451 7.29749C23.339 7.52149 23.0877 7.63909 22.8439 7.58155C22.6089 7.52607 22.4404 7.32183 22.4287 7.08277Z" fill="#40396E"></path><g filter="url(#filter0_d_13201_41654)"><circle cx="25.875" cy="27.625" r="7.875" fill="white"></circle></g><path d="M23.225 26.425H21.5375C21.2268 26.425 20.975 26.6768 20.975 26.9875V31.2063C20.975 31.5169 21.2268 31.7688 21.5375 31.7688H23.225M23.225 31.7688V26.5656L25.4586 22.2299C25.555 22.0427 25.7487 21.925 25.9593 21.925C26.6497 21.925 27.1798 22.5411 27.0735 23.2233L26.7497 25.3H29.6988C30.7319 25.3 31.5225 26.22 31.3671 27.2414L30.8963 30.3351C30.7708 31.1596 30.062 31.7688 29.228 31.7688H23.225Z" fill="white"></path><path fill-rule="evenodd" clip-rule="evenodd" d="M26.0652 22.69L23.975 26.7475V31.0188H29.228C29.6913 31.0188 30.0851 30.6803 30.1548 30.2223L30.6256 27.1285C30.712 26.5611 30.2727 26.05 29.6988 26.05H26.7497C26.5306 26.05 26.3225 25.9542 26.18 25.7878C26.0375 25.6214 25.9749 25.4009 26.0086 25.1845L26.3324 23.1078C26.3619 22.9185 26.2423 22.7415 26.0652 22.69ZM22.475 31.0188V27.175H21.725V31.0188H22.475ZM22.8401 25.675L24.7918 21.8865C24.7918 21.8865 24.7918 21.8866 24.7918 21.8865C25.0173 21.4487 25.469 21.175 25.9593 21.175C27.1076 21.175 27.9921 22.1995 27.8145 23.3388C27.8145 23.3388 27.8145 23.3388 27.8145 23.3388L27.6257 24.55H29.6988C31.1911 24.55 32.333 25.8789 32.1085 27.3542L31.6377 30.4479C31.6377 30.4479 31.6377 30.4479 31.6377 30.4479C31.4565 31.6388 30.4326 32.5188 29.228 32.5188H21.5375C20.8126 32.5188 20.225 31.9311 20.225 31.2063V26.9875C20.225 26.2626 20.8126 25.675 21.5375 25.675H22.8401Z" fill="#739F4D"></path><defs><filter id="filter0_d_13201_41654" x="18" y="19.75" width="16.35" height="16.25" filterUnits="userSpaceOnUse" color-interpolation-filters="sRGB"><feFlood flood-opacity="0" result="BackgroundImageFix"></feFlood><feColorMatrix in="SourceAlpha" type="matrix" values="0 0 0 0 0 0 0 0 0 0 0 0 0 0 0 0 0 0 127 0" result="hardAlpha"></feColorMatrix><feOffset dx="0.6" dy="0.5"></feOffset><feComposite in2="hardAlpha" operator="out"></feComposite><feColorMatrix type="matrix" values="0 0 0 0 0 0 0 0 0 0 0 0 0 0 0 0 0 0 0.35 0"></feColorMatrix><feBlend mode="normal" in2="BackgroundImageFix" result="effect1_dropShadow_13201_41654"></feBlend><feBlend mode="normal" in="SourceGraphic" in2="effect1_dropShadow_13201_41654" result="shape"></feBlend></filter></defs></svg>